<?xml version="1.0" encoding="utf-8"?>
<!-- Generator: Adobe Illustrator 15.1.0, SVG Export Plug-In . SVG Version: 6.00 Build 0)  -->
<!DOCTYPE svg PUBLIC "-//W3C//DTD SVG 1.1//EN" "http://www.w3.org/Graphics/SVG/1.1/DTD/svg11.dtd">
<svg version="1.1" id="Layer_1" xmlns="http://www.w3.org/2000/svg" xmlns:xlink="http://www.w3.org/1999/xlink" x="0px" y="0px"
	 width="19px" height="18.167px" viewBox="-4.833 8.333 19 18.167" style="enable-background:new -4.833 8.333 19 18.167;"
	 xml:space="preserve">
<style type="text/css">
<![CDATA[
	.st0{fill:#3498DB;}
	.st1{display:none;}
]]>
</style>
<g id="Layer_1_1_">
	<g>
		<path class="st0" d="M4.666,26.334c-4.962,0-9-4.039-9-9.001s4.038-9,9-9c4.963,0,9,4.038,9,9S9.629,26.334,4.666,26.334z
			 M4.666,10.333c-3.859,0-7,3.141-7,7c0,3.86,3.141,7.001,7,7.001c3.86,0,7-3.141,7-7.001C11.667,13.474,8.526,10.333,4.666,10.333
			z"/>
	</g>
	<g>
		<g>
			<path class="st0" d="M6.231,17.959c0.172,0,0.316,0.084,0.441,0.256c0.125,0.168,0.188,0.377,0.188,0.625
				s-0.062,0.457-0.188,0.625c-0.125,0.17-0.271,0.254-0.441,0.254c-0.18,0-0.336-0.084-0.461-0.254
				c-0.124-0.168-0.186-0.377-0.186-0.625s0.061-0.457,0.186-0.625C5.895,18.043,6.051,17.959,6.231,17.959 M8.442,15.67
				c0.482,0.522,0.725,1.155,0.725,1.898c0,0.482-0.057,0.916-0.166,1.301c-0.111,0.385-0.252,0.699-0.42,0.939
				c-0.17,0.242-0.377,0.455-0.627,0.635c-0.248,0.184-0.479,0.316-0.686,0.4c-0.207,0.086-0.445,0.15-0.715,0.197
				c-0.266,0.047-0.467,0.072-0.607,0.078c-0.135,0.006-0.282,0.01-0.44,0.01c-0.035,0-0.154,0.004-0.352,0.01
				c-0.193,0.008-0.359,0.012-0.488,0.012s-0.295-0.004-0.488-0.012c-0.195-0.006-0.316-0.01-0.352-0.01
				c-0.158,0-0.307-0.002-0.439-0.01c-0.141-0.006-0.342-0.031-0.607-0.078c-0.27-0.045-0.508-0.109-0.715-0.197
				c-0.207-0.084-0.436-0.217-0.684-0.4c-0.25-0.182-0.457-0.395-0.628-0.635c-0.168-0.24-0.309-0.555-0.42-0.939
				c-0.109-0.385-0.166-0.818-0.166-1.301c0-0.743,0.242-1.376,0.725-1.898c-0.053-0.025-0.055-0.286-0.008-0.782
				c0.043-0.496,0.148-0.953,0.32-1.369c0.602,0.063,1.342,0.403,2.229,1.017c0.301-0.078,0.711-0.118,1.232-0.118
				c0.549,0,0.961,0.04,1.235,0.118c0.404-0.272,0.791-0.496,1.16-0.666c0.375-0.168,0.645-0.267,0.814-0.293l0.254-0.058
				c0.172,0.416,0.277,0.875,0.32,1.369C8.499,15.384,8.495,15.645,8.442,15.67 M4.688,20.697c1.083,0,1.899-0.129,2.454-0.389
				c0.553-0.262,0.834-0.797,0.834-1.605c0-0.469-0.176-0.863-0.529-1.176c-0.182-0.17-0.395-0.272-0.639-0.312
				c-0.238-0.039-0.605-0.039-1.104,0c-0.497,0.04-0.834,0.059-1.016,0.059c-0.248,0-0.518-0.014-0.852-0.039
				s-0.596-0.041-0.783-0.049c-0.191-0.006-0.395,0.018-0.615,0.068c-0.223,0.053-0.404,0.143-0.551,0.273
				c-0.336,0.3-0.506,0.691-0.506,1.174c0,0.809,0.273,1.346,0.82,1.605c0.547,0.262,1.361,0.391,2.443,0.391 M3.121,17.959
				c0.17,0,0.316,0.084,0.439,0.256c0.125,0.168,0.188,0.377,0.188,0.625s-0.062,0.457-0.188,0.625
				c-0.123,0.17-0.27,0.254-0.439,0.254c-0.182,0-0.336-0.084-0.461-0.254c-0.125-0.168-0.188-0.377-0.188-0.625
				s0.062-0.457,0.188-0.625C2.785,18.043,2.939,17.959,3.121,17.959"/>
		</g>
	</g>
</g>
<g id="nyt_x5F_exporter_x5F_info" class="st1">
</g>
</svg>
